<mxfile host="app.diagrams.net" agent="Mozilla/5.0 (Windows NT 10.0; Win64; x64; rv:135.0) Gecko/20100101 Firefox/135.0" version="26.0.11">
  <diagram name="Page-1" id="C73noSQEQsGx67DJpRmS">
    <mxGraphModel dx="838" dy="935" grid="0" gridSize="10" guides="1" tooltips="1" connect="1" arrows="1" fold="1" page="0" pageScale="1" pageWidth="827" pageHeight="1169" math="0" shadow="0">
      <root>
        <mxCell id="0" />
        <mxCell id="1" parent="0" />
        <mxCell id="zIDK9Pv3G68t-1UoU_kD-1" value="" style="rounded=0;whiteSpace=wrap;html=1;rotation=-90;" vertex="1" parent="1">
          <mxGeometry x="69" y="106" width="220" height="151" as="geometry" />
        </mxCell>
        <mxCell id="zIDK9Pv3G68t-1UoU_kD-2" value="" style="rounded=0;whiteSpace=wrap;html=1;rotation=-90;" vertex="1" parent="1">
          <mxGeometry x="151.5" y="13.5" width="55" height="60" as="geometry" />
        </mxCell>
        <mxCell id="zIDK9Pv3G68t-1UoU_kD-3" value="" style="rounded=0;whiteSpace=wrap;html=1;rotation=-90;" vertex="1" parent="1">
          <mxGeometry x="151.5" y="290" width="55" height="60" as="geometry" />
        </mxCell>
        <mxCell id="zIDK9Pv3G68t-1UoU_kD-4" value="Recombinaison" style="text;html=1;align=center;verticalAlign=middle;whiteSpace=wrap;rounded=0;" vertex="1" parent="1">
          <mxGeometry x="104" y="73.5" width="152" height="219.5" as="geometry" />
        </mxCell>
        <mxCell id="zIDK9Pv3G68t-1UoU_kD-5" value="&lt;div&gt;Sas&lt;/div&gt;&lt;div&gt;d&#39;entrÃ©e&lt;/div&gt;" style="text;html=1;align=center;verticalAlign=middle;whiteSpace=wrap;rounded=0;" vertex="1" parent="1">
          <mxGeometry x="150" y="290" width="60" height="58" as="geometry" />
        </mxCell>
        <mxCell id="zIDK9Pv3G68t-1UoU_kD-6" value="&lt;div&gt;Sas&lt;/div&gt;&lt;div&gt;de sortie&lt;/div&gt;" style="text;html=1;align=center;verticalAlign=middle;whiteSpace=wrap;rounded=0;" vertex="1" parent="1">
          <mxGeometry x="150" y="16" width="60" height="54" as="geometry" />
        </mxCell>
      </root>
    </mxGraphModel>
  </diagram>
</mxfile>
